<?xml version="1.0" encoding="UTF-8" standalone="no" ?>
<!DOCTYPE svg PUBLIC "-//W3C//DTD SVG 1.1//EN" "http://www.w3.org/Graphics/SVG/1.1/DTD/svg11.dtd">
<svg xmlns="http://www.w3.org/2000/svg" xmlns:xlink="http://www.w3.org/1999/xlink" version="1.1" width="96" height="100" viewBox="0 0 96 100" xml:space="preserve">
<desc>Created with Fabric.js 3.6.6</desc>
<defs>
</defs>
<g transform="matrix(1 0 0 1 50 49.91)"  >
<g style=""   >
		<g transform="matrix(1 0 0 1 -2.14 0)"  >
<path style="stroke: none; stroke-width: 1; stroke-dasharray: none; stroke-linecap: butt; stroke-dashoffset: 0; stroke-linejoin: miter; stroke-miterlimit: 4; fill: rgb(255,255,255); fill-rule: nonzero; opacity: 1;"  transform=" translate(-47.86, -50)" d="M 6.017 4.313 l 55.333 -4.087 c 6.797 -0.583 8.543 -0.19 12.817 2.917 l 17.663 12.443 c 2.913 2.14 3.883 2.723 3.883 5.053 v 68.243 c 0 4.277 -1.553 6.807 -6.99 7.193 L 24.467 99.967 c -4.08 0.193 -6.023 -0.39 -8.16 -3.113 L 3.3 79.94 c -2.333 -3.113 -3.3 -5.443 -3.3 -8.167 V 11.113 c 0 -3.497 1.553 -6.413 6.017 -6.8 z" stroke-linecap="round" />
</g>
		<g transform="matrix(1 0 0 1 -2.14 0)"  >
<path style="stroke: none; stroke-width: 1; stroke-dasharray: none; stroke-linecap: butt; stroke-dashoffset: 0; stroke-linejoin: miter; stroke-miterlimit: 4; fill: rgb(0,0,0); fill-rule: evenodd; opacity: 1;"  transform=" translate(-47.86, -50)" d="M 61.35 0.227 l -55.333 4.087 C 1.553 4.7 0 7.617 0 11.113 v 60.66 c 0 2.723 0.967 5.053 3.3 8.167 l 13.007 16.913 c 2.137 2.723 4.08 3.307 8.16 3.113 l 64.257 -3.89 c 5.433 -0.387 6.99 -2.917 6.99 -7.193 V 20.64 c 0 -2.21 -0.873 -2.847 -3.443 -4.733 L 74.167 3.143 c -4.273 -3.107 -6.02 -3.5 -12.817 -2.917 z M 25.92 19.523 c -5.247 0.353 -6.437 0.433 -9.417 -1.99 L 8.927 11.507 c -0.77 -0.78 -0.383 -1.753 1.557 -1.947 l 53.193 -3.887 c 4.467 -0.39 6.793 1.167 8.54 2.527 l 9.123 6.61 c 0.39 0.197 1.36 1.36 0.193 1.36 l -54.933 3.307 l -0.68 0.047 z M 19.803 88.3 V 30.367 c 0 -2.53 0.777 -3.697 3.103 -3.893 L 86 22.78 c 2.14 -0.193 3.107 1.167 3.107 3.693 v 57.547 c 0 2.53 -0.39 4.67 -3.883 4.863 l -60.377 3.5 c -3.493 0.193 -5.043 -0.97 -5.043 -4.083 z m 59.6 -54.827 c 0.387 1.75 0 3.5 -1.75 3.7 l -2.91 0.577 v 42.773 c -2.527 1.36 -4.853 2.137 -6.797 2.137 c -3.107 0 -3.883 -0.973 -6.21 -3.887 l -19.03 -29.94 v 28.967 l 6.02 1.363 s 0 3.5 -4.857 3.5 l -13.39 0.777 c -0.39 -0.78 0 -2.723 1.357 -3.11 l 3.497 -0.97 v -38.3 L 30.48 40.667 c -0.39 -1.75 0.58 -4.277 3.3 -4.473 l 14.367 -0.967 l 19.8 30.327 v -26.83 l -5.047 -0.58 c -0.39 -2.143 1.163 -3.7 3.103 -3.89 l 13.4 -0.78 z" stroke-linecap="round" />
</g>
</g>
</g>
<g transform="matrix(1 0 0 1 43.83 40.78)"  >
<path style="stroke: rgb(0,0,0); stroke-width: 1; stroke-dasharray: none; stroke-linecap: round; stroke-dashoffset: 0; stroke-linejoin: round; stroke-miterlimit: 10; fill: none; fill-rule: nonzero; opacity: 1;"  transform=" translate(-314.5, -204.2)" d="M 309.6676666666666 205.66566666666665 Q 309.66666666666663 205.66666666666666 309.5 206 Q 309.3333333333333 206.33333333333331 309 206.83333333333331 Q 308.66666666666663 207.33333333333331 308.16666666666663 208.16666666666666 Q 307.66666666666663 209 307.3333333333333 209.83333333333331 Q 307 210.66666666666666 306.8333333333333 210.83333333333331 Q 306.66666666666663 211 306.66666666666663 211.33333333333331 Q 306.66666666666663 211.66666666666666 306.8333333333333 211.66666666666666 Q 307 211.66666666666666 307.5 211.33333333333331 Q 308 211 310.3333333333333 209.5 Q 312.66666666666663 208 314.66666666666663 206.16666666666666 Q 316.66666666666663 204.33333333333331 318.8333333333333 201.5 Q 321 198.66666666666666 321.3333333333333 198.16666666666666 Q 321.66666666666663 197.66666666666666 322 197.16666666666666 Q 322.3333333333333 196.66666666666666 322.3333333333333 196.83333333333331 Q 322.3333333333333 197 322.3333333333333 197.16666666666666 Q 322.3333333333333 197.33333333333331 321.66666666666663 198.33333333333331 Q 321 199.33333333333331 318.3333333333333 201.66666666666666 Q 315.66666666666663 204 313 206.16666666666666 Q 310.3333333333333 208.33333333333331 309.66666666666663 208.83333333333331 Q 309 209.33333333333331 308.66666666666663 209.5 L 308.33233333333334 209.66766666666666" stroke-linecap="round" />
</g>
<g transform="matrix(1 0 0 1 53.8 57.58)"  >
<path style="stroke: rgb(255,255,255); stroke-width: 20; stroke-dasharray: none; stroke-linecap: round; stroke-dashoffset: 0; stroke-linejoin: round; stroke-miterlimit: 10; fill: none; fill-rule: nonzero; opacity: 1;"  transform=" translate(-324.47, -221)" d="M 314.31333333333333 213.68666666666667 Q 314.3333333333333 213.66666666666666 314.66666666666663 213.33333333333331 Q 315 213 315.5 212.5 Q 316 212 316.8333333333333 211.16666666666666 Q 317.66666666666663 210.33333333333331 318 210.16666666666666 Q 318.3333333333333 210 318.8333333333333 209.83333333333331 Q 319.3333333333333 209.66666666666666 319.5 209.66666666666666 Q 319.66666666666663 209.66666666666666 319.8333333333333 209.66666666666666 Q 320 209.66666666666666 319.8333333333333 209.66666666666666 Q 319.66666666666663 209.66666666666666 319.5 209.66666666666666 Q 319.3333333333333 209.66666666666666 318.3333333333333 209.66666666666666 Q 317.3333333333333 209.66666666666666 316.5 209.33333333333331 Q 315.66666666666663 209 315.3333333333333 208.83333333333331 Q 315 208.66666666666666 314.8333333333333 208.66666666666666 Q 314.66666666666663 208.66666666666666 314.16666666666663 208.5 Q 313.66666666666663 208.33333333333331 313.3333333333333 208.16666666666666 Q 313 208 312.5 207.83333333333331 Q 312 207.66666666666666 311.5 207.5 Q 311 207.33333333333331 310.5 207.16666666666666 Q 310 207 309.66666666666663 207 Q 309.3333333333333 207 309 207 Q 308.66666666666663 207 308.3333333333333 207 Q 308 207 307.8333333333333 207 Q 307.66666666666663 207 307.5 207 Q 307.3333333333333 207 307 207 Q 306.66666666666663 207 306.3333333333333 207 Q 306 207 305.66666666666663 207 Q 305.3333333333333 207 305.3333333333333 207.33333333333331 Q 305.3333333333333 207.66666666666666 305.3333333333333 208 Q 305.3333333333333 208.33333333333331 305.3333333333333 209.5 Q 305.3333333333333 210.66666666666666 305.3333333333333 211 Q 305.3333333333333 211.33333333333331 305.3333333333333 211.83333333333331 Q 305.3333333333333 212.33333333333331 305.3333333333333 212.5 Q 305.3333333333333 212.66666666666666 305.3333333333333 213 Q 305.3333333333333 213.33333333333331 305.3333333333333 214 Q 305.3333333333333 214.66666666666666 305.3333333333333 215 Q 305.3333333333333 215.33333333333331 305.3333333333333 216.16666666666666 Q 305.3333333333333 217 305.3333333333333 217.5 Q 305.3333333333333 218 305.3333333333333 218.83333333333331 Q 305.3333333333333 219.66666666666666 305.3333333333333 219.83333333333331 Q 305.3333333333333 220 305.3333333333333 220.66666666666666 Q 305.3333333333333 221.33333333333331 305.3333333333333 221.66666666666666 Q 305.3333333333333 222 305.3333333333333 222.16666666666666 Q 305.3333333333333 222.33333333333331 305.3333333333333 222.66666666666666 Q 305.3333333333333 223 305.3333333333333 223.33333333333331 Q 305.3333333333333 223.66666666666666 305.5 224 Q 305.66666666666663 224.33333333333331 305.8333333333333 225.16666666666666 Q 306 226 306.16666666666663 226.5 Q 306.3333333333333 227 306.3333333333333 227.83333333333331 Q 306.3333333333333 228.66666666666666 306.5 229.16666666666666 Q 306.66666666666663 229.66666666666666 306.66666666666663 230.5 Q 306.66666666666663 231.33333333333331 306.66666666666663 231.83333333333331 Q 306.66666666666663 232.33333333333331 306.66666666666663 232.5 Q 306.66666666666663 232.66666666666666 306.66666666666663 233 Q 306.66666666666663 233.33333333333331 306.66666666666663 233.5 Q 306.66666666666663 233.66666666666666 306.66666666666663 234.16666666666666 Q 306.66666666666663 234.66666666666666 306.8333333333333 234.83333333333331 Q 307 235 307 235.16666666666666 Q 307 235.33333333333331 307 235.5 Q 307 235.66666666666666 307 236 Q 307 236.33333333333331 307 236.66666666666666 Q 307 237 307 237.33333333333331 Q 307 237.66666666666666 307 238.16666666666666 Q 307 238.66666666666666 307 239 Q 307 239.33333333333331 307 239.5 Q 307 239.66666666666666 306.8333333333333 240.16666666666666 Q 306.66666666666663 240.66666666666666 306.5 241 Q 306.3333333333333 241.33333333333331 306.16666666666663 241.5 Q 306 241.66666666666666 306 241.83333333333331 Q 306 242 306 242.16666666666666 Q 306 242.33333333333331 305.8333333333333 242.33333333333331 Q 305.66666666666663 242.33333333333331 305.66666666666663 242.5 Q 305.66666666666663 242.66666666666666 305.8333333333333 242.66666666666666 Q 306 242.66666666666666 306.66666666666663 242.66666666666666 Q 307.3333333333333 242.66666666666666 308 242.66666666666666 Q 308.66666666666663 242.66666666666666 309.3333333333333 242.66666666666666 Q 310 242.66666666666666 311 242.83333333333331 Q 312 243 312.16666666666663 243 Q 312.3333333333333 243 312.66666666666663 243 Q 313 243 313.16666666666663 243 Q 313.3333333333333 243 313.5 243 Q 313.66666666666663 243 314.3333333333333 243 Q 315 243 315.5 243 Q 316 243 316.5 242.66666666666666 Q 317 242.33333333333331 317.3333333333333 242.16666666666666 Q 317.66666666666663 242 318.16666666666663 241.5 Q 318.66666666666663 241 319 240.83333333333331 Q 319.3333333333333 240.66666666666666 319.8333333333333 240.16666666666666 Q 320.3333333333333 239.66666666666666 320.66666666666663 239 Q 321 238.33333333333331 321.3333333333333 237.83333333333331 Q 321.66666666666663 237.33333333333331 322.16666666666663 236.5 Q 322.66666666666663 235.66666666666666 322.8333333333333 235 Q 323 234.33333333333331 323 232 Q 323 229.66666666666666 322.66666666666663 226.83333333333331 Q 322.3333333333333 224 322 222.83333333333331 Q 321.66666666666663 221.66666666666666 321.5 221.16666666666666 Q 321.3333333333333 220.66666666666666 321 219.83333333333331 Q 320.66666666666663 219 320.5 218.83333333333331 Q 320.3333333333333 218.66666666666666 320.3333333333333 218.5 Q 320.3333333333333 218.33333333333331 320.16666666666663 218.33333333333331 Q 320 218.33333333333331 320 218.16666666666666 Q 320 218 320 217.66666666666666 Q 320 217.33333333333331 320 217.16666666666666 Q 320 217 320 216.83333333333331 Q 320 216.66666666666666 320 216.33333333333331 Q 320 216 320 215.83333333333331 Q 320 215.66666666666666 320 215.5 Q 320 215.33333333333331 320 215 Q 320 214.66666666666666 320 214.33333333333331 Q 320 214 320 213.66666666666666 Q 320 213.33333333333331 320 212.83333333333331 Q 320 212.33333333333331 320 212 Q 320 211.66666666666666 320 211.33333333333331 Q 320 211 320 210.83333333333331 Q 320 210.66666666666666 320 210.5 Q 320 210.33333333333331 320 210.16666666666666 Q 320 210 320 209.83333333333331 Q 320 209.66666666666666 320 209.33333333333331 Q 320 209 320 208.83333333333331 Q 320 208.66666666666666 320 208.33333333333331 Q 320 208 320 207.83333333333331 Q 320 207.66666666666666 320 207.16666666666666 Q 320 206.66666666666666 320 206.5 Q 320 206.33333333333331 320 206.16666666666666 Q 320 206 320 205.66666666666666 Q 320 205.33333333333331 320 205 Q 320 204.66666666666666 320 204.5 Q 320 204.33333333333331 320 204 Q 320 203.66666666666666 320.16666666666663 203.5 Q 320.3333333333333 203.33333333333331 320.3333333333333 203.16666666666666 Q 320.3333333333333 203 320.3333333333333 202.83333333333331 Q 320.3333333333333 202.66666666666666 320.5 202.5 Q 320.66666666666663 202.33333333333331 320.8333333333333 202 Q 321 201.66666666666666 321.3333333333333 201.5 Q 321.66666666666663 201.33333333333331 321.8333333333333 201.16666666666666 Q 322 201 322.16666666666663 201 Q 322.3333333333333 201 322.66666666666663 201 Q 323 201 323.3333333333333 201 Q 323.66666666666663 201 323.8333333333333 201 Q 324 201 324.3333333333333 201 Q 324.66666666666663 201 325 201 Q 325.3333333333333 201 325.66666666666663 201 Q 326 201 326.3333333333333 201 Q 326.66666666666663 201 326.8333333333333 201 Q 327 201 327.3333333333333 201 Q 327.66666666666663 201 328 201 Q 328.3333333333333 201 328.5 200.83333333333331 Q 328.66666666666663 200.66666666666666 329 200.66666666666666 Q 329.3333333333333 200.66666666666666 329.66666666666663 200.66666666666666 Q 330 200.66666666666666 330.66666666666663 200.5 Q 331.3333333333333 200.33333333333331 333.16666666666663 200.16666666666666 Q 335 200 335.8333333333333 199.83333333333331 Q 336.66666666666663 199.66666666666666 337.5 199.5 Q 338.3333333333333 199.33333333333331 339 199.33333333333331 Q 339.66666666666663 199.33333333333331 340 199.16666666666666 Q 340.3333333333333 199 340.66666666666663 199 Q 341 199 341.3333333333333 199 Q 341.66666666666663 199 342 199 Q 342.3333333333333 199 342.5 199 Q 342.66666666666663 199 342.8333333333333 199 Q 343 199 343.3333333333333 199 Q 343.66666666666663 199 343.5 199 Q 343.3333333333333 199 343.16666666666663 199 Q 343 199 343 199.33333333333331 Q 343 199.66666666666666 343 199.83333333333331 Q 343 200 343 200.16666666666666 Q 343 200.33333333333331 343 200.5 Q 343 200.66666666666666 343 200.83333333333331 Q 343 201 343 201.16666666666666 Q 343 201.33333333333331 343 201.66666666666666 Q 343 202 343 202.33333333333331 Q 343 202.66666666666666 343 202.83333333333331 Q 343 203 343 203.5 Q 343 204 343 204.33333333333331 Q 343 204.66666666666666 343 204.83333333333331 Q 343 205 342.8333333333333 205.16666666666666 Q 342.66666666666663 205.33333333333331 342.66666666666663 205.5 Q 342.66666666666663 205.66666666666666 342.66666666666663 205.83333333333331 Q 342.66666666666663 206 342.66666666666663 206.5 Q 342.66666666666663 207 342.66666666666663 207.16666666666666 Q 342.66666666666663 207.33333333333331 342.66666666666663 207.5 Q 342.66666666666663 207.66666666666666 342.5 207.83333333333331 Q 342.3333333333333 208 342.3333333333333 208.16666666666666 Q 342.3333333333333 208.33333333333331 342.3333333333333 208.83333333333331 Q 342.3333333333333 209.33333333333331 342.3333333333333 209.5 Q 342.3333333333333 209.66666666666666 342.16666666666663 210 Q 342 210.33333333333331 342 210.66666666666666 Q 342 211 342 211.33333333333331 Q 342 211.66666666666666 342 212.16666666666666 Q 342 212.66666666666666 342 213.16666666666666 Q 342 213.66666666666666 342 214 Q 342 214.33333333333331 342 214.83333333333331 Q 342 215.33333333333331 342 215.66666666666666 Q 342 216 342 216.5 Q 342 217 342 217.16666666666666 Q 342 217.33333333333331 342 217.66666666666666 Q 342 218 342 218.16666666666666 Q 342 218.33333333333331 342 218.5 Q 342 218.66666666666666 342 219 Q 342 219.33333333333331 342 219.5 Q 342 219.66666666666666 342 220 Q 342 220.33333333333331 342 220.83333333333331 Q 342 221.33333333333331 342 221.83333333333331 Q 342 222.33333333333331 342 223 Q 342 223.66666666666666 342 224 Q 342 224.33333333333331 342 224.5 Q 342 224.66666666666666 342 225.16666666666666 Q 342 225.66666666666666 342 226 Q 342 226.33333333333331 342 226.66666666666666 Q 342 227 342 227.5 Q 342 228 342 228.16666666666666 Q 342 228.33333333333331 342 228.5 Q 342 228.66666666666666 342 228.83333333333331 Q 342 229 342 229.5 Q 342 230 342 230.16666666666666 Q 342 230.33333333333331 342 230.66666666666666 Q 342 231 342 231.5 Q 342 232 342 232.16666666666666 Q 342 232.33333333333331 342 232.5 Q 342 232.66666666666666 342 232.83333333333331 Q 342 233 342 233.33333333333331 Q 342 233.66666666666666 342 233.83333333333331 Q 342 234 342 234.16666666666666 Q 342 234.33333333333331 342 234.66666666666666 Q 342 235 342 235.33333333333331 Q 342 235.66666666666666 342 235.83333333333331 Q 342 236 342 236.16666666666666 Q 342 236.33333333333331 342 236.5 Q 342 236.66666666666666 342 236.83333333333331 Q 342 237 342 237.33333333333331 Q 342 237.66666666666666 342 237.83333333333331 Q 342 238 342 238.16666666666666 Q 342 238.33333333333331 342 238.5 Q 342 238.66666666666666 341.8333333333333 238.66666666666666 Q 341.66666666666663 238.66666666666666 341.5 238.66666666666666 Q 341.3333333333333 238.66666666666666 341.16666666666663 238.83333333333331 Q 341 239 341 239.16666666666666 Q 341 239.33333333333331 340.8333333333333 239.33333333333331 Q 340.66666666666663 239.33333333333331 340.5 239.33333333333331 Q 340.3333333333333 239.33333333333331 340 239.33333333333331 Q 339.66666666666663 239.33333333333331 339.5 239.33333333333331 Q 339.3333333333333 239.33333333333331 339.16666666666663 239.33333333333331 Q 339 239.33333333333331 338.8333333333333 239.33333333333331 Q 338.66666666666663 239.33333333333331 338.5 239.33333333333331 Q 338.3333333333333 239.33333333333331 338.16666666666663 239.33333333333331 Q 338 239.33333333333331 337.8333333333333 239.33333333333331 Q 337.66666666666663 239.33333333333331 337.5 239.33333333333331 Q 337.3333333333333 239.33333333333331 337.16666666666663 239.16666666666666 Q 337 239 336.8333333333333 239 Q 336.66666666666663 239 336.16666666666663 238.33333333333331 Q 335.66666666666663 237.66666666666666 335.3333333333333 237.16666666666666 Q 335 236.66666666666666 334.5 236 Q 334 235.33333333333331 333.8333333333333 234.5 Q 333.66666666666663 233.66666666666666 333.16666666666663 232.83333333333331 Q 332.66666666666663 232 332.3333333333333 231.16666666666666 Q 332 230.33333333333331 331.66666666666663 229.66666666666666 Q 331.3333333333333 229 331.16666666666663 228.66666666666666 Q 331 228.33333333333331 330.8333333333333 228.16666666666666 Q 330.66666666666663 228 330.3333333333333 227.5 Q 330 227 330 226.83333333333331 Q 330 226.66666666666666 329.8333333333333 226 Q 329.66666666666663 225.33333333333331 329.66666666666663 225 Q 329.66666666666663 224.66666666666666 329.5 224.5 Q 329.3333333333333 224.33333333333331 329.16666666666663 223.66666666666666 Q 329 223 329 222.83333333333331 Q 329 222.66666666666666 328.8333333333333 222.33333333333331 Q 328.66666666666663 222 328.66666666666663 221.66666666666666 Q 328.66666666666663 221.33333333333331 328.5 221.16666666666666 Q 328.3333333333333 221 328.16666666666663 220.83333333333331 Q 328 220.66666666666666 328 220.5 Q 328 220.33333333333331 328 220.16666666666666 Q 328 220 327.8333333333333 220 L 327.64666666666665 220" stroke-linecap="round" />
</g>
<g transform="matrix(1 0 0 1 1438.09 57.53)" style=""  >
		<text xml:space="preserve" font-family="'Open Sans', sans-serif" font-size="18" font-style="normal" font-weight="normal" style="stroke: none; stroke-width: 1; stroke-dasharray: none; stroke-linecap: butt; stroke-dashoffset: 0; stroke-linejoin: miter; stroke-miterlimit: 4; fill: rgb(0,0,0); fill-rule: nonzero; opacity: 1; white-space: pre;" ><tspan x="-1405.83" y="23.56" style="font-family: 'Cormorant Garamond', serif; font-size: 75px; font-weight: bold; ">E</tspan></text>
</g>
</svg>